<svg xmlns="http://www.w3.org/2000/svg"  viewBox="0 0 100 100" width="100px" height="100px" baseProfile="basic"><path fill="#316db0" d="M84.607,48.271c0.185-18.056-12.399-36.823-31.648-37.332c-6.292-1.002-12.895-0.154-19.074,2.641	c-10.86,4.912-20.159,15.623-21.457,27.549c-4.01,20.841,11.981,41.957,34.376,42.275c3.815,0.054,7.51-0.511,10.984-1.601	C73.146,79.479,84.453,63.403,84.607,48.271z"/><path d="M15.702,37.24c0,0-0.235,0.541-0.612,1.64c-0.368,1.099-0.878,2.765-1.201,5.038l0.003-0.018	c-0.705,3.483-1.311,8.554-0.068,14.644c0.104,0.77,0.334,1.528,0.566,2.304c0.229,0.779,0.463,1.574,0.702,2.385	c0.322,0.784,0.649,1.583,0.983,2.397c0.171,0.406,0.33,0.824,0.517,1.231c0.213,0.396,0.428,0.795,0.644,1.197	c1.627,3.285,4.025,6.471,6.99,9.4c5.824,5.973,14.966,10.158,24.99,10.307c2.431,0.044,4.988,0.032,7.607-0.42	c0.652-0.119,1.308-0.25,1.958-0.425l0.838-0.234l0.875-0.176c0.656-0.136,1.315-0.273,1.976-0.41	c0.64-0.208,1.283-0.417,1.927-0.627l0.967-0.319l0.929-0.417c0.62-0.281,1.241-0.562,1.864-0.844l1.775-1.027l0.889-0.521	l0.838-0.598l1.677-1.208l1.57-1.352l0.782-0.684l0.727-0.743l1.451-1.499c2.405-2.702,4.375-5.701,5.944-8.835	c1.553-3.14,2.751-6.418,3.378-9.774c0.672-3.344,0.773-6.75,0.538-9.984c-0.102-0.807-0.203-1.609-0.304-2.408l-0.157-1.192	l-0.252-1.169c-0.17-0.775-0.339-1.546-0.507-2.313c-0.229-0.75-0.457-1.495-0.684-2.236C82.061,26.524,73.384,17.82,64.5,14.862	c-0.556-0.174-1.106-0.345-1.649-0.515c-0.545-0.159-1.069-0.366-1.621-0.439c-1.09-0.191-2.143-0.423-3.177-0.557	c-1.04-0.063-2.051-0.124-3.033-0.184l-0.295-0.016l-0.358-0.041c-0.237-0.027-0.473-0.054-0.707-0.08	c-0.471-0.037-0.935-0.073-1.391-0.109c-3.657-0.192-6.797,0.225-9.279,0.809c-2.49,0.575-4.337,1.299-5.568,1.815	c-0.617,0.257-1.076,0.477-1.385,0.625c-0.308,0.147-0.467,0.222-0.467,0.222s0.164-0.064,0.482-0.187	c0.318-0.125,0.791-0.311,1.422-0.524c1.258-0.427,3.138-1.019,5.62-1.429c2.474-0.42,5.564-0.638,9.086-0.256	c0.439,0.059,0.885,0.118,1.338,0.179c0.227,0.038,0.456,0.077,0.687,0.116l0.347,0.058l0.42,0.047	c0.935,0.106,1.898,0.215,2.888,0.327c0.978,0.179,1.968,0.453,2.989,0.681c0.518,0.091,1.005,0.316,1.512,0.491	c0.504,0.184,1.014,0.37,1.53,0.558c8.211,3.175,15.956,11.609,19.181,22.744c0.194,0.696,0.389,1.396,0.585,2.1	c0.138,0.718,0.277,1.439,0.417,2.164l0.211,1.09l0.119,1.11c0.078,0.742,0.157,1.487,0.236,2.236	c0.15,3.022,0.007,6.052-0.647,9.097c-0.611,3.048-1.748,6.046-3.194,8.917c-1.462,2.866-3.281,5.612-5.473,8.076l-1.32,1.363	l-0.659,0.678L72.64,76.65l-1.414,1.23l-1.503,1.091l-0.748,0.544l-0.792,0.467l-1.576,0.932l-1.646,0.76l-0.818,0.381l-0.85,0.286	c-0.565,0.193-1.128,0.385-1.69,0.577c-0.578,0.126-1.154,0.252-1.729,0.378l-0.968,0.214c-0.083,0.019-0.131,0.025-0.242,0.06	l-0.104,0.031l-0.207,0.063l-0.415,0.121c-0.554,0.159-1.12,0.281-1.686,0.394c-2.272,0.433-4.633,0.501-7.006,0.507	c-9.272,0.043-17.745-3.489-23.455-8.89c-2.885-2.64-5.291-5.553-6.977-8.607c-0.225-0.374-0.448-0.745-0.669-1.112	c-0.197-0.38-0.365-0.77-0.547-1.15c-0.358-0.763-0.709-1.511-1.053-2.246c-0.267-0.765-0.529-1.515-0.785-2.25	c-0.262-0.734-0.523-1.453-0.66-2.186c-1.507-5.796-1.231-10.777-0.76-14.26l0.003-0.019c0.18-2.25,0.576-3.935,0.867-5.052	C15.508,37.798,15.702,37.24,15.702,37.24z"/><path fill="#f2f2f2" d="M41.193,25.261C33.565,32.898,19.804,44.7,28.498,56.562c8.347,11.387,21.151,2.91,28.989-4.056	c3.298-2.931-1.555-7.756-4.838-4.838c-4.493,3.993-17.188,13.957-19.738,2.203c-1.687-7.778,8.388-15.034,13.12-19.772	C49.147,26.98,44.31,22.14,41.193,25.261L41.193,25.261z"/><path fill="#f2f2f2" d="M44.768,48.409c2.716-2.328,5.478-5.309,8.966-6.451c4.946-1.62,9.199,0.42,10.267,5.435	c1.923,9.028-5.425,15.137-12.15,19.567c-3.662,2.412-0.238,8.34,3.453,5.908c10.288-6.777,20.004-17.587,14.183-30.702	c-2.395-5.397-7.668-7.737-13.434-7.512c-6.638,0.26-11.367,4.837-16.123,8.915C36.581,46.441,41.44,51.262,44.768,48.409	L44.768,48.409z"/></svg>